<?xml version="1.0" encoding="UTF-8"?>
<svg id="Capa_2" data-name="Capa 2" xmlns="http://www.w3.org/2000/svg" viewBox="0 0 100 48.97">
  <defs>
    <style>
      .cls-1 {
        fill: #7d3a00;
        stroke-width: 0px;
      }
    </style>
  </defs>
  <g id="Capa_2-2" data-name="Capa 2">
    <g>
      <path class="cls-1" d="m21.98,1.55c.81,0,1.22.35,1.22,1.06l-2.71,43.32c-.13,1.76-.69,2.64-1.69,2.64H4.14c-1.04,0-1.58-.88-1.62-2.64L0,2.68c-.04-.35.08-.63.36-.83.29-.2.59-.3.93-.3h6.34c.9,0,1.35.29,1.35.86l1.09,31.56.07,6.41c0,.82.3,1.22.89,1.22h1.06c.55,0,.85-.41.89-1.22l.07-6.41,1.29-31.56c0-.59.41-.88,1.22-.86h6.41Z"/>
      <path class="cls-1" d="m30.05,8.72c-1.26,0-2.31-.4-3.17-1.19s-1.29-1.82-1.29-3.07c0-1.34.44-2.42,1.32-3.24.88-.81,1.93-1.22,3.16-1.22s2.28.41,3.17,1.24,1.34,1.89,1.34,3.21-.45,2.35-1.35,3.12c-.9.77-1.96,1.16-3.17,1.16Zm4,38.56c0,.86-.39,1.29-1.16,1.29h-5.49c-.4,0-.71-.13-.94-.38-.23-.25-.35-.53-.35-.84V11.76c0-.64.28-.96.83-.96l.96.56c.64.31,1.38.46,2.21.46.77,0,1.46-.17,2.07-.51.61-.34.95-.51,1.04-.51.55,0,.83.3.83.89v35.59Z"/>
      <path class="cls-1" d="m54.47,47.22c0,.9-.43,1.35-1.29,1.35h-13.45c-1.04,0-1.56-.39-1.59-1.16V2.54c0-.68.51-1.01,1.52-.99h5.68c.81,0,1.21.41,1.19,1.22v37.67c0,.86.36,1.29,1.09,1.29h5.42c.95,0,1.42.77,1.42,2.31v3.17Z"/>
      <path class="cls-1" d="m74.16,39.52c.59,0,.88.61.86,1.82v3.17c0,.86-.26,1.54-.79,2.05-1.54,1.63-3.78,2.43-6.71,2.41-3.66,0-6.41-1.24-8.26-3.72s-2.78-5.93-2.78-10.36V15.63c0-9.69,3.68-14.55,11.04-14.57,1.89,0,3.6.37,5.11,1.12,1.51.75,2.26,1.55,2.26,2.41v7.77c0,.64-.29.96-.86.96-.04,0-.66-.37-1.83-1.12-1.18-.75-2.35-1.12-3.52-1.12-2.49.09-3.73,1.81-3.73,5.15v19.63c0,4.19,1.42,6.28,4.26,6.28.95,0,1.77-.21,2.48-.63.7-.42,1.25-.85,1.64-1.31.39-.45.67-.68.84-.68Z"/>
      <path class="cls-1" d="m97.62,4.2l2.38,43.16c0,.82-.39,1.22-1.16,1.22h-6.15c-.4,0-.72-.13-.97-.38-.25-.25-.36-.58-.31-.97l-.33-8.99c-.04-.64-.39-.96-1.02-.96h-2.84c-.51,0-.78.32-.83.96l.07-1.78-.46,10.84c0,.86-.39,1.29-1.16,1.29h-6.21c-.35,0-.66-.14-.91-.41-.25-.28-.36-.59-.31-.94l2.51-43.02c.09-1.08.23-1.79.43-2.13.2-.34.64-.51,1.32-.51h14.08c.51,0,.87.03,1.09.1.22.07.41.29.56.68.15.39.23,1.01.23,1.87Zm-7.43,26.24c.26,0,.46-.11.59-.33l-.46-13.75-.13-4.53c0-.51-.23-.76-.69-.76h-1.35c-.51,0-.75.23-.73.69l-.13,4.59-.56,13.75c.09.22.3.33.63.33h2.84Z"/>
    </g>
  </g>
</svg>