<?xml version="1.0" encoding="UTF-8"?>
<svg id="Capa_2" data-name="Capa 2" xmlns="http://www.w3.org/2000/svg" viewBox="0 0 76.32 80">
  <defs>
    <style>
      .cls-1 {
        stroke-width: 0px;
      }
    </style>
  </defs>
  <g id="Capa_2-2" data-name="Capa 2">
    <g id="SVGRepo_iconCarrier" data-name="SVGRepo iconCarrier">
      <path class="cls-1" d="m38.26,61.58c-1.33,0-2.62-.52-3.59-1.5-1.38-1.38-1.85-3.38-1.23-5.22,0,0,3.28-9.84,3.69-10.7.47-.99,1.06-1.94,1.74-2.81.58-.74,19.72-19.88,19.72-19.88,1.96-1.96,4.57-3.04,7.35-3.04s5.39,1.08,7.35,3.04c1.96,1.96,3.04,4.57,3.04,7.35s-1.08,5.38-3.04,7.35l-17.41,17.41c-1.14,1.13-1.74,1.74-2.47,2.31-.87.68-4.49,2.42-5.98,2.92,0,0-8.61,2.77-9.15,2.77Zm2.25-8.05l.71.71,4.2-1.4c1.3-.43,1.95-.65,2.45-.89.58-.28,1.14-.62,1.65-1.02.43-.33.9-.81,1.85-1.76l12.19-12.19c-1.07-.61-2.2-1.43-3.29-2.52-1.09-1.09-1.9-2.22-2.51-3.29l-12.16,12.16c-.98.98-1.46,1.46-1.8,1.89-.4.51-.74,1.07-1.02,1.65-.23.49-.43,1.07-.89,2.45l-1.4,4.2Zm22.01-27.1c.31.95.94,2.3,2.22,3.58,1.28,1.28,2.63,1.91,3.58,2.22l.51-.51c.78-.78,1.2-1.81,1.2-2.9s-.43-2.13-1.2-2.9c-1.55-1.55-4.25-1.55-5.8,0l-.51.51Z"/>
      <path class="cls-1" d="m30.79,46.83h-9.21c-1.74,0-3.14-1.41-3.14-3.14s1.41-3.14,3.14-3.14h9.21c1.74,0,3.14,1.41,3.14,3.14s-1.41,3.14-3.14,3.14Z"/>
      <path class="cls-1" d="m45.53,32.09h-23.96c-1.74,0-3.14-1.41-3.14-3.14s1.41-3.14,3.14-3.14h23.96c1.74,0,3.14,1.41,3.14,3.14s-1.41,3.14-3.14,3.14Z"/>
      <path class="cls-1" d="m27.1,61.57h-5.53c-1.74,0-3.14-1.41-3.14-3.14s1.41-3.14,3.14-3.14h5.53c1.74,0,3.14,1.41,3.14,3.14s-1.41,3.14-3.14,3.14Z"/>
      <path class="cls-1" d="m40,80h-7.37c-14.75,0-22.15,0-27.39-5.24C0,69.52,0,62.12,0,47.37v-14.74C0,17.88,0,10.48,5.24,5.24,10.48,0,17.88,0,32.63,0h7.37c14.75,0,22.15,0,27.39,5.24,1.23,1.23,1.23,3.22,0,4.45-1.23,1.23-3.22,1.23-4.45,0-3.4-3.4-9.93-3.4-22.94-3.4h-7.37c-13.01,0-19.55,0-22.94,3.4-3.4,3.4-3.4,9.93-3.4,22.94v14.74c0,13.01,0,19.55,3.4,22.94,3.4,3.4,9.93,3.4,22.94,3.4h7.37c13.01,0,19.55,0,22.94-3.4,2.69-2.69,3.25-7.37,3.37-15.62.03-1.72,1.43-3.1,3.14-3.1.02,0,.03,0,.05,0,1.74.03,3.12,1.45,3.1,3.19-.14,9.94-.99,15.75-5.21,19.97-5.24,5.24-12.64,5.24-27.39,5.24Z"/>
    </g>
  </g>
</svg>