<?xml version="1.0" encoding="UTF-8"?>
<svg id="Capa_2" data-name="Capa 2" xmlns="http://www.w3.org/2000/svg" viewBox="0 0 80 80.01">
  <defs>
    <style>
      .cls-1 {
        stroke-width: 0px;
      }
    </style>
  </defs>
  <g id="Capa_2-2" data-name="Capa 2">
    <g>
      <path class="cls-1" d="m55.79,80.01c-1.41-.57-2.37-1.54-2.49-3.1-.15-2.01,1.37-3.55,3.48-3.58,2.47-.03,4.95.1,7.41-.07,3.49-.24,6.06-2.1,7.82-5.07,1-1.7,1.34-3.58,1.32-5.55-.02-2.08,0-4.16.01-6.24.02-1.63,1.4-2.89,3.02-2.97,1.98-.1,3.01.99,3.64,2.67v9.37c-.13.42-.3.82-.39,1.25-.78,3.55-2.49,6.54-5.21,8.98-1.67,1.49-3.52,2.65-5.63,3.35-1.23.41-2.51.64-3.77.95h-9.22Z"/>
      <path class="cls-1" d="m80,24.23c-.35.48-.68.98-1.06,1.44-.69.85-2.42,1.34-3.46.85-1.32-.62-2.13-1.59-2.15-3.09-.02-2.13,0-4.27-.01-6.4-.01-4.94-3.03-8.92-7.93-10.08-.77-.18-1.58-.22-2.37-.23-2.21-.04-4.43.03-6.64-.05-1.72-.06-2.74-1.24-3.07-2.83-.28-1.3.74-3.3,2.06-3.51.54-.09,1.08-.28,1.63-.29,2-.04,4.01-.05,6.01,0,3.98.07,7.65,1.16,10.77,3.71,3.11,2.55,5.07,5.84,5.91,9.78.09.4.21.79.31,1.19v9.53Z"/>
      <path class="cls-1" d="m14.55,80.01c-1.12-.31-2.26-.57-3.36-.93-3.05-1-5.49-2.85-7.52-5.33-1.8-2.2-2.88-4.72-3.46-7.47-.17-.82-.16-1.69-.17-2.53-.02-2.42.03-4.84-.02-7.26-.03-1.52,1.52-3.05,3.06-3.08,2.4-.04,3.65,1.68,3.63,3.7-.03,2.33-.13,4.67-.04,7,.08,1.92.82,3.66,1.97,5.21,1.58,2.13,3.71,3.41,6.29,3.92.65.13,1.35.08,2.02.09,1.98,0,3.96,0,5.93,0,2.51,0,3.97,1.52,3.68,3.97-.15,1.28-1.08,2.07-2.25,2.56-.08.03-.15.1-.23.15h-9.53Z"/>
      <path class="cls-1" d="m66.59,40.03c.17,14.5-12.07,27.26-27.75,26.66-13.69-.52-24.08-11.26-25.36-23.72-.92-8.93,2.02-16.53,8.55-22.65,4.46-4.18,9.85-6.48,15.96-6.85,7.66-.46,14.45,1.78,20.1,7.07,5.63,5.26,8.41,11.8,8.49,19.49Zm-46.58-.04c0,5.74,2.11,10.64,6.24,14.56,4.15,3.94,9.18,5.8,14.92,5.44,5.04-.32,9.4-2.31,12.95-5.91,4.36-4.41,6.22-9.78,5.72-15.94-.75-9.28-8.53-18.32-20.54-18.1-10.35.19-19.32,8.68-19.3,19.93Z"/>
      <path class="cls-1" d="m.03,19.37c0-1.38-.07-2.76.02-4.14.15-2.37.88-4.6,2.04-6.65,1.72-3.02,4.11-5.38,7.27-6.88,1.81-.86,3.69-1.49,5.73-1.53,2.72-.05,5.44-.18,8.16-.13,1.65.03,2.64.64,3.22,2.31.37,1.06.27,2.54-.97,3.46-.59.44-1.39.8-2.11.83-2.47.11-4.95-.05-7.41.09-3.16.18-5.69,1.62-7.52,4.26-1.16,1.68-1.78,3.5-1.74,5.55.04,2.11.03,4.22,0,6.32-.04,2.37-1.12,3.42-3.08,3.81-1.41.28-3.42-.89-3.58-2.96,0-.05,0-.1,0-.16,0-1.41,0-2.81,0-4.22,0,0,0,0,0,0Z"/>
      <path class="cls-1" d="m39.78,53.34c-3.72.03-7.03-1.31-10.23-3.03-1.02-.55-2.02-1.07-2.61-2.2-1.12-2.12.81-4.91,2.9-4.71.93.09,1.71.33,2.48.81,2.04,1.26,4.27,2.12,6.63,2.47,1.73.26,3.46-.18,5.07-.82,1.35-.53,2.69-1.15,3.92-1.91,1.5-.92,3.89-.69,4.85.95.96,1.65.6,3.6-1.27,4.72-2.66,1.6-5.47,2.85-8.52,3.46-1.05.21-2.15.17-3.23.24Z"/>
      <path class="cls-1" d="m48.1,40.01c-2.57.05-5.05-2.44-4.79-5.29.25-2.85,2.16-4.65,4.85-4.66,3.03-.02,5.15,2.04,5.11,5.1-.03,2.72-2.29,4.89-5.17,4.85Z"/>
      <path class="cls-1" d="m36.58,35.05c.17,2.75-2.44,4.94-4.88,4.98-2.83.05-5.11-2.33-5.08-5,.03-2.78,2.06-5,4.98-4.99,2.77.01,5.09,2.07,4.98,5.01Z"/>
    </g>
  </g>
</svg>