<?xml version="1.0" encoding="UTF-8"?>
<svg id="Capa_2" data-name="Capa 2" xmlns="http://www.w3.org/2000/svg" viewBox="0 0 80 80">
  <defs>
    <style>
      .cls-1 {
        stroke-width: 0px;
      }
    </style>
  </defs>
  <g id="Capa_2-2" data-name="Capa 2">
    <g id="SVGRepo_iconCarrier" data-name="SVGRepo iconCarrier">
      <path class="cls-1" d="m40,80c-18.3,0-27.49,0-33.74-6.26C0,67.49,0,58.3,0,40S0,12.51,6.26,6.26C12.51,0,21.7,0,40,0s27.49,0,33.74,6.26c6.26,6.26,6.26,15.44,6.26,33.74s0,27.49-6.26,33.74c-6.26,6.26-15.44,6.26-33.74,6.26Zm0-74.56c-16.8,0-25.23,0-29.9,4.66-4.66,4.66-4.66,13.1-4.66,29.9s0,25.23,4.66,29.9c4.66,4.66,13.1,4.66,29.9,4.66s25.23,0,29.9-4.66c4.66-4.66,4.66-13.1,4.66-29.9s0-25.23-4.66-29.9c-4.66-4.66-13.1-4.66-29.9-4.66Z"/>
      <path class="cls-1" d="m34.41,52.04c-.7,0-1.39-.27-1.92-.8l-7.46-7.46c-1.06-1.06-1.06-2.79,0-3.85,1.06-1.06,2.78-1.06,3.85,0l5.53,5.53,16.72-16.72c1.06-1.06,2.78-1.06,3.85,0,1.06,1.06,1.06,2.78,0,3.85l-18.64,18.64c-.53.53-1.23.8-1.92.8Z"/>
    </g>
  </g>
</svg>